<svg width="49" height="49" viewBox="0 0 49 49" fill="none" xmlns="http://www.w3.org/2000/svg">
<g clip-path="url(#clip0_205_42)">
<rect width="48" height="48" transform="translate(0.185059 0.185059)" fill="#F7F4EB"/>
<path d="M3.53516 32.0181H44.8346" stroke="#FECB89" stroke-width="0.508523" stroke-linecap="round"/>
<path d="M44.521 35.6035L3.84898 28.4319" stroke="#FECB89" stroke-width="0.508523" stroke-linecap="round"/>
<path d="M43.5894 39.0806L4.78057 24.9553" stroke="#FECB89" stroke-width="0.508523" stroke-linecap="round"/>
<path d="M42.0684 42.3428L6.30199 21.6931" stroke="#FECB89" stroke-width="0.508523" stroke-linecap="round"/>
<path d="M40.0039 45.2915L8.3667 18.7447" stroke="#FECB89" stroke-width="0.508523" stroke-linecap="round"/>
<path d="M37.4585 47.8364L10.9117 16.1992" stroke="#FECB89" stroke-width="0.508523" stroke-linecap="round"/>
<path d="M34.5103 49.9009L13.8605 14.1345" stroke="#FECB89" stroke-width="0.508523" stroke-linecap="round"/>
<path d="M31.2476 51.4224L17.1223 12.6136" stroke="#FECB89" stroke-width="0.508523" stroke-linecap="round"/>
<path d="M27.771 52.354L20.5994 11.682" stroke="#FECB89" stroke-width="0.508523" stroke-linecap="round"/>
<path d="M24.1851 52.6675L24.1851 11.368" stroke="#FECB89" stroke-width="0.508523" stroke-linecap="round"/>
<path d="M20.5996 52.354L27.7712 11.682" stroke="#FECB89" stroke-width="0.508523" stroke-linecap="round"/>
<path d="M17.1226 51.4224L31.2478 12.6136" stroke="#FECB89" stroke-width="0.508523" stroke-linecap="round"/>
<path d="M13.8604 49.9009L34.5101 14.1345" stroke="#FECB89" stroke-width="0.508523" stroke-linecap="round"/>
<path d="M10.9116 47.8364L37.4584 16.1992" stroke="#FECB89" stroke-width="0.508523" stroke-linecap="round"/>
<path d="M8.3667 45.2915L40.0039 18.7447" stroke="#FECB89" stroke-width="0.508523" stroke-linecap="round"/>
<path d="M6.30176 42.3428L42.0681 21.6931" stroke="#FECB89" stroke-width="0.508523" stroke-linecap="round"/>
<path d="M4.78076 39.0806L43.5895 24.9553" stroke="#FECB89" stroke-width="0.508523" stroke-linecap="round"/>
<path d="M3.84912 35.6035L44.5211 28.4319" stroke="#FECB89" stroke-width="0.508523" stroke-linecap="round"/>
<path d="M33.2286 33.2695C33.2286 38.147 29.2643 41.0364 24.4401 41.0364C19.6159 41.0364 15.1416 35.9377 15.1416 31.0602C15.1416 26.1827 19.6159 23.3735 24.4401 23.3735C29.2643 23.3735 33.2286 28.392 33.2286 33.2695Z" fill="#FECB89"/>
<rect x="-0.720215" y="32.2051" width="49.8105" height="22.948" fill="#F7F4EB"/>
<path fill-rule="evenodd" clip-rule="evenodd" d="M14.6155 39.7647C14.8205 39.2156 14.9386 38.6235 14.953 38.0046C15.022 35.0294 12.6661 32.5616 9.69088 32.4926C7.03619 32.431 4.78545 34.3001 4.28233 36.8171C3.35234 35.3356 1.71991 34.3346 -0.159681 34.291C-3.13487 34.222 -5.60267 36.5779 -5.67167 39.5531C-5.68878 40.2909 -5.55677 40.9975 -5.30315 41.6441C-6.76237 42.5783 -7.74555 44.198 -7.78874 46.0605C-7.85774 49.0356 -5.50182 51.5034 -2.52663 51.5724C0.250391 51.6369 2.58537 49.5886 2.94021 46.8961C3.86492 48.4036 5.5121 49.4256 7.41174 49.4697C8.99977 49.5065 10.4433 48.8525 11.4546 47.7822C12.3801 49.2856 14.025 50.3043 15.9215 50.3483C18.8966 50.4173 21.3645 48.0614 21.4335 45.0862C21.5025 42.111 19.1465 39.6432 16.1713 39.5742C15.6323 39.5617 15.11 39.6288 14.6155 39.7647Z" fill="white"/>
<path fill-rule="evenodd" clip-rule="evenodd" d="M50.6634 39.7647C50.8683 39.2156 50.9865 38.6235 51.0008 38.0046C51.0698 35.0294 48.7139 32.5616 45.7387 32.4926C43.084 32.431 40.8333 34.3001 40.3302 36.8171C39.4002 35.3356 37.7678 34.3346 35.8882 34.291C32.913 34.222 30.4452 36.5779 30.3762 39.5531C30.3591 40.2909 30.4911 40.9975 30.7447 41.6441C29.2855 42.5783 28.3023 44.198 28.2591 46.0605C28.1901 49.0356 30.546 51.5034 33.5212 51.5724C36.2984 51.6369 38.6334 49.5884 38.9881 46.8957C39.9128 48.4035 41.5601 49.4256 43.4598 49.4697C45.0478 49.5065 46.4912 48.8526 47.5025 47.7823C48.4281 49.2857 50.0729 50.3043 51.9693 50.3483C54.9445 50.4173 57.4123 48.0614 57.4813 45.0862C57.5503 42.111 55.1944 39.6432 52.2192 39.5742C51.6802 39.5617 51.1578 39.6288 50.6634 39.7647Z" fill="white"/>
<path fill-rule="evenodd" clip-rule="evenodd" d="M47.2093 9.15026C47.4967 8.98495 47.7728 8.79063 48.0337 8.56699C50.2933 6.6303 50.5551 3.22854 48.6184 0.968962C47.4379 -0.408328 45.7131 -1.04336 44.0344 -0.890705C44.1594 -2.28677 43.743 -3.73003 42.7587 -4.87833C40.822 -7.13791 37.4203 -7.39966 35.1607 -5.46296C34.6703 -5.04259 34.2739 -4.5532 33.9738 -4.02144C32.1667 -4.75229 30.0244 -4.47409 28.4422 -3.11797C26.1826 -1.18128 25.9209 2.22048 27.8576 4.48006C29.1919 6.03687 31.2218 6.64532 33.0943 6.23978C31.8983 8.18086 32.0291 10.749 33.5924 12.5729C35.2849 14.5475 38.0961 14.9965 40.2863 13.7858C40.1491 15.1949 40.5639 16.6556 41.558 17.8154C43.4947 20.075 46.8965 20.3367 49.156 18.4C51.4156 16.4633 51.6774 13.0616 49.7407 10.802C49.0455 9.9909 48.1615 9.43723 47.2093 9.15026ZM36.9301 3.73002C36.8334 3.69719 36.7375 3.66157 36.6426 3.62317C36.609 3.68259 36.5743 3.74148 36.5383 3.79981C36.6683 3.77167 36.7989 3.74841 36.9301 3.73002Z" fill="white"/>
<path fill-rule="evenodd" clip-rule="evenodd" d="M-6.34717 14.8513C-6.82487 13.1224 -6.40336 11.3574 -5.36502 10.0544C-5.73286 9.54695 -6.01775 8.96628 -6.19449 8.32665C-6.88742 5.81885 -5.68831 3.23507 -3.45902 2.0953C-3.85535 -0.559974 -2.21647 -3.1543 0.436848 -3.88745C2.78809 -4.53712 5.20612 -3.52361 6.43822 -1.55724C7.08932 -2.90958 8.29885 -3.9844 9.85921 -4.41554C12.7277 -5.20814 15.6956 -3.52529 16.4882 -0.656791C17.2808 2.21171 15.598 5.17961 12.7295 5.97221C12.6095 6.00536 12.4893 6.03418 12.3692 6.05877C12.6195 6.47255 12.8179 6.92721 12.9531 7.41635C13.7457 10.2848 12.0628 13.2528 9.19435 14.0453C7.38209 14.5461 5.53015 14.0588 4.21216 12.9086C4.45685 15.4637 2.84132 17.9028 0.28183 18.61C-2.58667 19.4026 -5.55457 17.7198 -6.34717 14.8513Z" fill="white"/>
</g>
<defs>
<clipPath id="clip0_205_42">
<rect width="48" height="48" fill="white" transform="translate(0.185059 0.185059)"/>
</clipPath>
</defs>
</svg>
